<svg width="632" height="238" xmlns="http://www.w3.org/2000/svg" xmlns:xlink="http://www.w3.org/1999/xlink" xml:space="preserve" overflow="hidden"><g transform="translate(-1535 -811)"><g><rect x="1542.5" y="819.5" width="618" height="219" stroke="#163567" stroke-width="9.16667" stroke-linecap="butt" stroke-linejoin="round" stroke-miterlimit="10" stroke-opacity="1" fill="#000000" fill-opacity="1"/><g><g><g><path d="M155.588 92.5475C155.278 81.8083 152.316 71.5457 147.234 62.537 146.524 61.2426 145.751 59.9849 144.927 58.7589 141.818 54.0294 138.097 49.7081 133.848 45.9266 133.608 45.6912 133.368 45.4541 133.128 45.2201 130.57 42.7337 128.885 39.9401 128.931 36.2508 128.977 32.5761 128.875 28.8994 128.932 25.225 128.983 21.9579 127.39 19.2897 123.413 19.5408 118.132 19.8744 112.815 19.6176 107.513 19.6253 104.568 19.6294 103.176 21.0485 103.172 24.0456 103.165 28.0406 103.06 32.0401 103.151 36.0313 103.152 36.1017 103.153 36.172 103.154 36.2428 103.169 36.8421 103.188 37.4415 103.213 38.0406 103.399 42.5084 100.35 46.1236 96.1071 46.958 91.6821 47.8284 88.0831 46.8425 85.5064 43.3839 84.3928 41.8895 84.0359 39.5805 83.9544 37.616 83.8483 35.0447 83.8173 32.47 83.818 29.8942 83.8173 29.8942 83.8166 29.8944 83.816 29.8944 83.8166 27.309 83.8506 24.7227 83.8783 22.1383 83.9136 18.8018 83.2886 17.2587 79.365 17.463 75.8401 17.6465 72.2932 17.388 68.7649 17.5329 66.2037 17.638 63.4752 16.0663 62.3956 13.7171 62.5603 13.3375 62.6532 12.9192 62.6532 12.4791L62.6532 4.70159C62.6532 2.98345 61.2601 1.59047 59.5421 1.59047L51.7645 1.59047C50.0462 1.59047 48.6535 2.98322 48.6535 4.70159L48.6535 12.4791C48.6535 14.1972 50.0462 15.5902 51.7645 15.5902L59.5421 15.5902C59.6768 15.5902 59.8085 15.5788 59.9388 15.5622 62.9246 16.4363 64.2833 19.2726 64.3251 22.9686 64.3786 27.7168 64.3463 32.4657 64.3594 37.2142 64.3625 38.4743 64.3675 39.734 64.3806 40.9941 64.4106 43.9503 64.9955 44.4587 67.9221 44.5806 68.41 44.6008 68.8963 44.6699 69.6499 44.7419 69.6499 47.4624 69.7361 50.0024 69.5785 52.5269 69.5462 53.0418 68.6286 53.8701 68.0662 53.917 66.03 54.0863 63.9695 53.9287 61.9225 54.0058 60.6995 54.0523 60.256 53.5307 60.2998 52.3936 60.3213 51.8289 60.3287 51.2608 60.2957 50.6974 60.1957 49.005 59.4923 47.9328 57.5914 47.9894 55.8963 48.0399 54.1978 48.0345 52.502 47.9951 50.2395 47.9429 49.3471 47.0351 49.3165 44.8059 49.3134 44.6126 49.3145 44.4193 49.3145 44.2257 49.305 42.864 49.3192 41.5019 49.3057 40.1401 49.2791 37.4877 48.0423 36.2151 45.3622 36.1774 42.4646 36.1363 39.5596 36.0512 36.6694 36.205 34.519 36.3199 32.9288 35.4518 31.5115 34.0348 27.5932 30.118 23.7121 26.1635 19.7663 22.2744 18.8817 21.4026 18.2064 20.4912 17.8116 19.4472 17.8669 19.1836 17.8968 18.9108 17.8968 18.6308L17.8968 8.73207C17.8968 6.54538 16.124 4.77261 13.9373 4.77261L4.03839 4.77261C1.85169 4.77261 0.0789222 6.54538 0.0789222 8.73207L0.0789222 18.6308C0.0789222 20.8177 1.85169 22.5902 4.03839 22.5902L13.9373 22.5902C14.356 22.5902 14.7588 22.5242 15.1376 22.4037 15.7683 22.6112 16.374 22.9395 16.8039 23.3507 21.3307 27.6785 25.8644 32.0123 30.1265 36.5946 31.2157 37.7658 31.7986 39.8344 31.8221 41.5015 31.9707 52.1033 31.9552 62.7084 31.856 73.3108 31.8321 75.8707 31.353 78.4312 29.4147 80.4388 29.2346 80.6257 29.0497 80.7981 28.861 80.9605 28.8204 80.9951 28.7788 81.0261 28.7378 81.0598 28.5796 81.1904 28.4193 81.3144 28.2544 81.4272 28.221 81.4504 28.1868 81.472 28.1531 81.4942 27.9657 81.6174 27.7747 81.7316 27.578 81.8316 27.5671 81.8373 27.5566 81.843 27.5456 81.8484 27.3264 81.9582 27.1017 82.0545 26.8696 82.1346 26.8694 82.136 26.8692 82.1373 26.869 82.1383 26.2342 82.3592 25.5511 82.4704 24.8018 82.4461 23.8847 82.4162 22.932 82.3195 22.0518 82.5111 17.9323 83.4078 16.0054 80.2483 13.9172 77.8467 13.1632 76.9796 13.6657 74.9874 13.6593 73.5085 13.6395 69.0714 13.6518 69.0714 9.23512 69.0545 3.47557 69.0326 3.47554 69.0326 3.47554 74.748 3.47554 75.3137 3.47123 75.8795 3.47645 76.4448 3.49787 78.7882 4.00037 79.3148 6.27882 79.3613 7.05614 79.3771 7.85259 79.4734 8.60852 79.3455 13.0452 78.5939 15.2057 81.5097 17.1836 84.6602 17.4849 85.14 17.4582 85.8694 17.463 86.4839 17.4883 89.7358 17.4956 92.9876 17.4653 96.2391 17.453 97.5561 17.848 98.376 19.3189 98.5346 23.4817 98.9835 25.1921 100.129 26.1731 103.248 29.973 134.127 56.4078 159.524 90.5978 159.95 101.852 159.877 112.698 156.904 122.202 151.617L100.074 129.489C97.1113 130.272 94.0019 130.694 90.7928 130.694 70.7894 130.694 54.5732 114.478 54.5732 94.4746 54.5732 74.4712 70.7894 58.2548 90.7928 58.2548 110.796 58.2548 127.013 74.4709 127.013 94.4746 127.013 97.7571 126.568 100.935 125.75 103.958 124.984 106.786 123.888 109.476 122.5 111.984L143.384 132.867C144.975 130.671 146.428 128.36 147.741 125.951 153.018 116.273 155.945 104.954 155.588 92.5475ZM47.5931 94.2386C47.5931 95.9047 46.2424 97.2554 44.5763 97.2554L37.0344 97.2554C35.3679 97.2554 34.0173 95.9047 34.0173 94.2386L34.0173 86.6967C34.0173 85.0306 35.3679 83.6799 37.0344 83.6799L44.5763 83.6799C46.2424 83.6799 47.5931 85.0306 47.5931 86.6967L47.5931 94.2386ZM52.6838 70.8116C52.6838 72.0609 51.6709 73.0741 50.4213 73.0741L44.7648 73.0741C43.5152 73.0741 42.5023 72.0609 42.5023 70.8116L42.5023 65.1551C42.5023 63.9055 43.5152 62.8926 44.7648 62.8926L50.4213 62.8926C51.6709 62.8926 52.6838 63.9055 52.6838 65.1551L52.6838 70.8116Z" fill="#FAD333" fill-rule="nonzero" fill-opacity="1" transform="matrix(1.01096 0 0 1 1570 846)"/><path d="M156.609 146.094 143.383 132.868 122.5 111.985C119.168 118.005 114.176 122.977 108.137 126.278L129.077 147.218 142.281 160.422C144.488 162.63 148.068 162.63 150.275 160.422L156.61 154.088C158.817 151.88 158.817 148.301 156.609 146.094Z" fill="#FFFFFF" fill-rule="nonzero" fill-opacity="1" transform="matrix(1.01096 0 0 1 1570 846)"/><path d="M125.75 103.959C124.984 106.786 123.888 109.477 122.5 111.984L143.384 132.868C144.975 130.672 146.428 128.36 147.741 125.951L125.75 103.959Z" fill="#000000" fill-rule="nonzero" fill-opacity="0.3" transform="matrix(1.01096 0 0 1 1570 846)"/></g></g></g><text fill="#FFFFFF" fill-opacity="1" font-family="50,50_MSFontService,sans-serif" font-style="normal" font-variant="normal" font-weight="700" font-stretch="normal" font-size="92" text-anchor="start" direction="ltr" writing-mode="lr-tb" unicode-bidi="normal" text-decoration="none" transform="matrix(1 0 0 1 1764.93 967)">AIQAse</text></g></g></svg>